# xmcd
#
# Track frame offsets: 
#        150
#        13295
#        25778
#        37507
#        52602
#        63689
#        73646
#        86209
#        99518
#        110256
#        123911
#        137097
#        149136
#        161273
#        174761
#        186609
#        199324
#        210375
#        222722
#        234046
#        246805
#        261893
#        284519
#        301138
#        317912
#        333119
#        346173
#        359768
#
# Disc length: 5032 seconds
#
# Revision: 0
# Processed by: cddbd v1.5.2PL0 Copyright (c) Steve Scherf et al.
# Submitted via: ExactAudioCopy v1.1
#
DISCID=a113a61c
DTITLE=Tyrone Davis - Tyrone Davis Brunswick Complete Singles Collecti
DTITLE=on Disc 1 CDSOL-5811
DYEAR=1900
DGENRE=Soul
TTITLE0=Can I Change My Mind
TTITLE1=A Woman Needs To Be Loved
TTITLE2=Is It Something You've Got
TTITLE3=Undying Love
TTITLE4=All The Waiting Is Not In Vain
TTITLE5=Need Your Lovin' Everyday
TTITLE6=If It's Love That You're After
TTITLE7=When I'm Not Around
TTITLE8=You Can't Keep A Good Man Down
TTITLE9=If I Didn't Love You
TTITLE10=Turn Back The Hands Of Time
TTITLE11=I Keep Coming Back
TTITLE12=I'll Be Right Here
TTITLE13=Just Because Of You
TTITLE14=Let Me Back In
TTITLE15=Love Bones
TTITLE16=Could I Forget You
TTITLE17=Just My Way Of Loving You
TTITLE18=One-Way Ticket
TTITLE19=We Got A Love
TTITLE20=You Keep Me Holding On
TTITLE21=I Had It All The Time
TTITLE22=You Wouldn't Believe
TTITLE23=Was I Just A Fool
TTITLE24=After All This Time
TTITLE25=Come And Get This Ring
TTITLE26=If You Had A Change In Mind
TTITLE27=Was It Just A Feeling
EXTD=
EXTT0=
EXTT1=
EXTT2=
EXTT3=
EXTT4=
EXTT5=
EXTT6=
EXTT7=
EXTT8=
EXTT9=
EXTT10=
EXTT11=
EXTT12=
EXTT13=
EXTT14=
EXTT15=
EXTT16=
EXTT17=
EXTT18=
EXTT19=
EXTT20=
EXTT21=
EXTT22=
EXTT23=
EXTT24=
EXTT25=
EXTT26=
EXTT27=
PLAYORDER=
